<svg xmlns="http://www.w3.org/2000/svg" viewBox="0 0 1200 360"><defs><radialGradient id="bg" cx="50%" cy="20%" r="80%"><stop offset="0" stop-color="#6e322b"/><stop offset="0.28" stop-color="#292628"/><stop offset="1" stop-color="#101316"/></radialGradient></defs><rect width="1200" height="360" fill="url(#bg)"/><rect x="476" y="28" width="248" height="62" rx="6" fill="#8d1818" stroke="#2a1010" stroke-width="8"/><text x="600" y="69" text-anchor="middle" font-family="Arial" font-size="28" font-weight="700" letter-spacing="6" fill="#fff1ea">ON AIR</text>
<g transform="translate(570 112)"><rect x="0" y="0" width="62" height="86" rx="31" fill="#2c3136" stroke="#101215" stroke-width="8"/><g fill="#7d838a"><rect x="10" y="16" width="3" height="48" rx="1.5"/><rect x="19" y="16" width="3" height="48" rx="1.5"/><rect x="28" y="16" width="3" height="48" rx="1.5"/><rect x="37" y="16" width="3" height="48" rx="1.5"/><rect x="46" y="16" width="3" height="48" rx="1.5"/></g><rect x="27" y="78" width="8" height="98" rx="4" fill="#1d2024" transform="rotate(-12 31 128)"/></g>
<g transform="translate(112 215)"><rect width="976" height="98" rx="8" fill="#3a4047" stroke="#171a1d" stroke-width="7"/><rect x="28" y="13" width="86" height="68" rx="4" fill="#1b1d20"/><rect x="146" y="13" width="86" height="68" rx="4" fill="#1b1d20"/><rect x="264" y="13" width="86" height="68" rx="4" fill="#1b1d20"/><rect x="382" y="13" width="86" height="68" rx="4" fill="#1b1d20"/><rect x="500" y="13" width="86" height="68" rx="4" fill="#1b1d20"/><rect x="618" y="13" width="86" height="68" rx="4" fill="#1b1d20"/><rect x="736" y="13" width="86" height="68" rx="4" fill="#1b1d20"/><rect x="854" y="13" width="86" height="68" rx="4" fill="#1b1d20"/><rect x="70" y="20" width="20" height="12" rx="3" fill="#ddd7ca" stroke="#212326" stroke-width="2"/><rect x="188" y="27" width="20" height="12" rx="3" fill="#ddd7ca" stroke="#212326" stroke-width="2"/><rect x="306" y="34" width="20" height="12" rx="3" fill="#ddd7ca" stroke="#212326" stroke-width="2"/><rect x="424" y="41" width="20" height="12" rx="3" fill="#ddd7ca" stroke="#212326" stroke-width="2"/><rect x="542" y="48" width="20" height="12" rx="3" fill="#ddd7ca" stroke="#212326" stroke-width="2"/><rect x="660" y="55" width="20" height="12" rx="3" fill="#ddd7ca" stroke="#212326" stroke-width="2"/><rect x="778" y="22" width="20" height="12" rx="3" fill="#ddd7ca" stroke="#212326" stroke-width="2"/><rect x="896" y="29" width="20" height="12" rx="3" fill="#ddd7ca" stroke="#212326" stroke-width="2"/><rect x="55" y="18" width="2" height="58" fill="#6f767c"/><rect x="173" y="18" width="2" height="58" fill="#6f767c"/><rect x="291" y="18" width="2" height="58" fill="#6f767c"/><rect x="409" y="18" width="2" height="58" fill="#6f767c"/><rect x="527" y="18" width="2" height="58" fill="#6f767c"/><rect x="645" y="18" width="2" height="58" fill="#6f767c"/><rect x="763" y="18" width="2" height="58" fill="#6f767c"/><rect x="881" y="18" width="2" height="58" fill="#6f767c"/></g><g opacity=".18" fill="#fff"><circle cx="100" cy="40" r="2"/><circle cx="193" cy="58" r="2"/><circle cx="286" cy="76" r="2"/><circle cx="379" cy="40" r="2"/><circle cx="472" cy="58" r="2"/><circle cx="565" cy="76" r="2"/><circle cx="658" cy="40" r="2"/><circle cx="751" cy="58" r="2"/><circle cx="844" cy="76" r="2"/><circle cx="937" cy="40" r="2"/></g></svg>